<svg width="512" height="512" viewBox="0 0 512 512" fill="none" xmlns="http://www.w3.org/2000/svg">
  <rect width="512" height="512" rx="128" fill="#102216" />
  <circle cx="256" cy="256" r="164" fill="#59D889" />
  <circle cx="256" cy="256" r="118" fill="#102216" />
  <path
    d="M187 257.5C187 219.116 216.116 190 254.5 190C286.319 190 308.063 207.498 318.533 231.578L286.664 244.179C281.749 232.771 270.503 225 255.383 225C236.781 225 223 239.276 223 257.5C223 275.227 236.283 290 256.375 290C270.377 290 281.749 282.229 286.789 270.57L318.782 282.922C307.938 307.749 285.073 325 254.5 325C216.116 325 187 295.884 187 257.5Z"
    fill="#F5F7F5"
  />
  <path
    d="M273 189H307V325H273V189Z"
    fill="#F5F7F5"
  />
</svg>
